<?xml version="1.0" standalone="no"?>
<!DOCTYPE svg PUBLIC "-//W3C//DTD SVG 20010904//EN"
 "http://www.w3.org/TR/2001/REC-SVG-20010904/DTD/svg10.dtd">
<svg version="1.0" xmlns="http://www.w3.org/2000/svg"
 width="225.000000pt" height="225.000000pt" viewBox="0 0 225.000000 225.000000"
 preserveAspectRatio="xMidYMid meet">

<g transform="translate(0.000000,225.000000) scale(0.100000,-0.100000)"
fill="#cecdcd" stroke="none">
<path d="M1040 2239 c-42 -6 -98 -26 -156 -54 -195 -94 -314 -285 -314 -500 0
-154 53 -279 165 -391 221 -221 557 -221 780 0 119 118 172 253 163 420 -19
328 -314 571 -638 525z"/>
<path d="M862 918 c-175 -22 -373 -91 -507 -176 -109 -69 -221 -190 -277 -299
-53 -105 -72 -183 -65 -269 6 -78 30 -119 87 -147 l45 -22 985 0 985 0 43 24
c75 43 99 108 82 218 -22 136 -87 256 -200 372 -156 159 -368 256 -653 296
-113 16 -407 18 -525 3z"/>
</g>
</svg>
